<?xml version="1.0" encoding="utf-8"?>
<!-- Generator: Adobe Illustrator 23.0.3, SVG Export Plug-In . SVG Version: 6.00 Build 0)  -->
<svg version="1.1" xmlns="http://www.w3.org/2000/svg" xmlns:xlink="http://www.w3.org/1999/xlink" x="0px" y="0px"
	 viewBox="0 0 316.08 73.65" style="enable-background:new 0 0 316.08 73.65;" xml:space="preserve">
<style type="text/css">
	.st0{fill:#FFFFFF;}
	.st1{fill:url(#SVGID_1_);}
	.st2{fill:url(#SVGID_2_);}
</style>
<g id="Logotype">
	<g>
		<path d="M129.66,66.76c-0.36-0.49-0.94-0.74-1.52-0.74c-1.36,0-2.32,1.2-2.32,2.53c0,1.41,0.95,2.52,2.32,2.52
			c0.74,0,1.33-0.3,1.76-0.85l0.54,0.46c-0.54,0.73-1.33,1.07-2.3,1.07c-1.74,0-3.09-1.35-3.09-3.19c0-1.79,1.29-3.2,3.09-3.2
			c0.82,0,1.63,0.28,2.15,0.95L129.66,66.76z"/>
		<path d="M146.57,69.27c0,1.32-0.62,2.48-2.29,2.48c-1.68,0-2.29-1.15-2.29-2.48v-3.76h0.72v3.66c0,0.98,0.36,1.91,1.57,1.91
			c1.21,0,1.57-0.93,1.57-1.91v-3.66h0.72V69.27z"/>
		<path d="M131.6,65.51c0.28,0,0.49,0.22,0.49,0.49c0,0.28-0.21,0.49-0.49,0.49c-0.28,0-0.49-0.21-0.49-0.49
			C131.11,65.73,131.33,65.51,131.6,65.51 M131.26,67.57h0.67v4.02h-0.67V67.57z"/>
		<path d="M135.29,68.14h-1.19v2.01c0,0.51,0.01,0.93,0.6,0.93c0.2,0,0.41-0.04,0.59-0.14l0.02,0.61c-0.23,0.1-0.53,0.15-0.78,0.15
			c-0.95,0-1.11-0.51-1.11-1.35v-2.21h-0.88v-0.57h0.88v-1.14h0.67v1.14h1.19V68.14z"/>
		<path d="M137.94,72.51c-0.26,0.68-0.53,1.14-1.34,1.14c-0.19,0-0.42-0.02-0.6-0.1l0.09-0.58c0.14,0.05,0.28,0.07,0.47,0.07
			c0.44,0,0.6-0.27,0.75-0.66l0.27-0.75l-1.66-4.05h0.78l1.25,3.15h0.02l1.19-3.15h0.73L137.94,72.51z"/>
		<path d="M147.46,68.53c0-0.37-0.03-0.69-0.03-0.95h0.64c0,0.22,0.02,0.44,0.02,0.66h0.02c0.18-0.39,0.68-0.76,1.34-0.76
			c1.06,0,1.53,0.67,1.53,1.64v2.48h-0.67v-2.41c0-0.67-0.29-1.09-0.92-1.09c-0.87,0-1.25,0.63-1.25,1.55v1.96h-0.67V68.53z"/>
		<path d="M152.24,65.51c0.27,0,0.49,0.22,0.49,0.49c0,0.28-0.21,0.49-0.49,0.49c-0.28,0-0.49-0.21-0.49-0.49
			C151.75,65.73,151.96,65.51,152.24,65.51 M151.9,67.57h0.67v4.02h-0.67V67.57z"/>
		<polygon points="155.78,71.59 155.04,71.59 153.4,67.57 154.18,67.57 155.43,70.72 155.45,70.72 156.64,67.57 157.37,67.57 		"/>
		<path d="M165.45,70.53c0.26,0.33,0.56,0.54,1.03,0.54c0.42,0,0.89-0.18,0.89-0.62c0-0.43-0.43-0.54-0.86-0.64
			c-0.76-0.17-1.42-0.33-1.42-1.17c0-0.78,0.76-1.19,1.5-1.19c0.57,0,1.09,0.22,1.37,0.73l-0.56,0.37
			c-0.17-0.28-0.46-0.48-0.85-0.48c-0.37,0-0.79,0.18-0.79,0.56c0,0.34,0.48,0.48,1.02,0.59c0.71,0.14,1.31,0.39,1.31,1.2
			c0,0.91-0.81,1.26-1.61,1.26c-0.68,0-1.17-0.18-1.56-0.75L165.45,70.53z"/>
		<path d="M161.36,70.86c-0.47,0.61-1.04,0.83-1.79,0.83c-1.26,0-2.04-0.94-2.04-2.11c0-1.25,0.88-2.11,2.06-2.11
			c1.13,0,1.91,0.77,1.91,2.11v0.21h-3.25c0.05,0.7,0.58,1.29,1.32,1.29c0.57,0,0.96-0.21,1.28-0.61L161.36,70.86z M160.78,69.22
			c-0.03-0.68-0.47-1.14-1.21-1.14c-0.74,0-1.23,0.46-1.32,1.14H160.78z"/>
		<path d="M162.36,68.53c0-0.37-0.03-0.69-0.03-0.95h0.64c0,0.22,0.02,0.44,0.02,0.66h0.02c0.18-0.39,0.68-0.76,1.34-0.76
			c0.09,0,0.18,0.01,0.28,0.04l-0.04,0.68c-0.11-0.03-0.24-0.05-0.36-0.05c-0.82,0-1.18,0.58-1.18,1.5v1.96h-0.67V68.53z"/>
		<path d="M169.21,65.51c0.28,0,0.49,0.22,0.49,0.49c0,0.28-0.21,0.49-0.49,0.49s-0.49-0.21-0.49-0.49
			C168.72,65.73,168.93,65.51,169.21,65.51 M168.87,67.57h0.67v4.02h-0.67V67.57z"/>
		<path d="M173.06,68.14h-1.19v2.01c0,0.51,0.01,0.93,0.6,0.93c0.2,0,0.41-0.04,0.59-0.14l0.02,0.61c-0.23,0.1-0.53,0.15-0.78,0.15
			c-0.95,0-1.11-0.51-1.11-1.35v-2.21h-0.88v-0.57h0.88v-1.14h0.67v1.14h1.19V68.14z"/>
		<path d="M175.58,72.51c-0.26,0.68-0.53,1.14-1.34,1.14c-0.19,0-0.42-0.02-0.6-0.1l0.08-0.58c0.14,0.05,0.28,0.07,0.47,0.07
			c0.44,0,0.6-0.27,0.75-0.66l0.28-0.75l-1.67-4.05h0.78l1.25,3.15h0.02l1.19-3.15h0.73L175.58,72.51z"/>
		<path d="M181.51,67.47c1.24,0,2.15,0.86,2.15,2.11c0,1.26-0.91,2.11-2.15,2.11c-1.24,0-2.14-0.86-2.14-2.11
			C179.36,68.33,180.27,67.47,181.51,67.47 M181.51,71.08c0.87,0,1.43-0.65,1.43-1.5c0-0.84-0.56-1.5-1.43-1.5
			c-0.87,0-1.43,0.65-1.43,1.5C180.08,70.42,180.64,71.08,181.51,71.08"/>
		<path d="M184.81,68.14h-0.88v-0.57h0.88v-0.9c0-0.98,0.34-1.68,1.43-1.68c0.17,0,0.39,0.03,0.52,0.11l-0.1,0.6
			c-0.15-0.05-0.3-0.09-0.45-0.09c-0.7,0-0.72,0.51-0.72,1.2v0.76h0.98v0.57h-0.98v3.46h-0.67V68.14z"/>
		<polygon points="189.21,65.51 189.93,65.51 189.93,68.09 193.18,68.09 193.18,65.51 193.9,65.51 193.9,71.59 193.18,71.59 
			193.18,68.76 189.93,68.76 189.93,71.59 189.21,71.59 		"/>
		<path d="M196.89,67.47c1.24,0,2.15,0.86,2.15,2.11c0,1.26-0.91,2.11-2.15,2.11c-1.24,0-2.15-0.86-2.15-2.11
			C194.74,68.33,195.65,67.47,196.89,67.47 M196.89,71.08c0.87,0,1.43-0.65,1.43-1.5c0-0.84-0.56-1.5-1.43-1.5
			c-0.87,0-1.43,0.65-1.43,1.5C195.46,70.42,196.02,71.08,196.89,71.08"/>
		<path d="M199.88,68.53c0-0.37-0.03-0.69-0.03-0.95h0.63c0,0.22,0.02,0.44,0.02,0.66h0.02c0.18-0.39,0.68-0.76,1.34-0.76
			c1.06,0,1.53,0.67,1.53,1.64v2.48h-0.67v-2.41c0-0.67-0.29-1.09-0.92-1.09c-0.87,0-1.25,0.63-1.25,1.55v1.96h-0.67V68.53z"/>
		<path d="M208.41,71.41c0,1.45-0.78,2.24-2.19,2.24c-0.78,0-1.41-0.21-1.98-0.76l0.48-0.55c0.42,0.46,0.88,0.7,1.49,0.7
			c1.2,0,1.52-0.77,1.52-1.62V70.9h-0.02c-0.32,0.52-0.89,0.75-1.42,0.75c-1.26,0-2.14-0.88-2.14-2.06c0-1.31,0.86-2.11,2.14-2.11
			c0.54,0,1.15,0.26,1.42,0.79h0.02v-0.69h0.67V71.41z M206.31,71.03c0.92,0,1.44-0.69,1.44-1.46c0-0.87-0.59-1.48-1.44-1.48
			c-0.84,0-1.42,0.65-1.42,1.5C204.89,70.4,205.52,71.03,206.31,71.03"/>
		<path d="M218.29,67.47c1.24,0,2.15,0.86,2.15,2.11c0,1.26-0.91,2.11-2.15,2.11c-1.24,0-2.15-0.86-2.15-2.11
			C216.14,68.33,217.05,67.47,218.29,67.47 M218.29,71.08c0.87,0,1.43-0.65,1.43-1.5c0-0.84-0.56-1.5-1.43-1.5
			c-0.87,0-1.43,0.65-1.43,1.5C216.86,70.42,217.42,71.08,218.29,71.08"/>
		<path d="M221.27,68.53c0-0.37-0.03-0.69-0.03-0.95h0.63c0,0.22,0.02,0.44,0.02,0.66h0.02c0.18-0.39,0.68-0.76,1.34-0.76
			c1.06,0,1.53,0.67,1.53,1.64v2.48h-0.67v-2.41c0-0.67-0.29-1.09-0.92-1.09c-0.87,0-1.25,0.63-1.25,1.55v1.96h-0.67V68.53z"/>
		<path d="M229.81,71.41c0,1.45-0.78,2.24-2.19,2.24c-0.78,0-1.41-0.21-1.97-0.76l0.48-0.55c0.42,0.46,0.88,0.7,1.49,0.7
			c1.2,0,1.52-0.77,1.52-1.62V70.9h-0.02c-0.32,0.52-0.88,0.75-1.42,0.75c-1.26,0-2.14-0.88-2.14-2.06c0-1.31,0.86-2.11,2.14-2.11
			c0.54,0,1.15,0.26,1.42,0.79h0.02v-0.69h0.67V71.41z M227.7,71.03c0.92,0,1.44-0.69,1.44-1.46c0-0.87-0.59-1.48-1.44-1.48
			c-0.84,0-1.42,0.65-1.42,1.5C226.28,70.4,226.92,71.03,227.7,71.03"/>
		<polygon points="211.49,65.51 212.21,65.51 212.21,68.14 212.32,68.14 215.08,65.51 216.12,65.51 213.12,68.28 216.27,71.59 
			215.21,71.59 212.32,68.5 212.21,68.5 212.21,71.59 211.49,71.59 		"/>
	</g>
	<g>
		<path d="M130.88,54.59h3.65v-0.57h-4.33v-1.06c1.19-0.11,2.3-0.26,3.31-0.47l0.11-0.02l-0.33-0.6l-0.06,0.01
			c-2.35,0.47-4.75,0.7-7.12,0.7h-0.1l0.17,0.62l0.06,0c1.17-0.03,2.29-0.09,3.34-0.18v1h-4.33v0.57h3.64
			c-0.39,0.42-0.9,0.83-1.53,1.24c-0.79,0.51-1.57,0.9-2.33,1.17l-0.08,0.03l0.27,0.56l0.07-0.02c0.79-0.29,1.66-0.75,2.58-1.36
			c0.69-0.49,1.27-1,1.72-1.52v2.34H127v4.4h5.84v-4.4h-2.64v-2.34c0.9,1.02,2.29,1.96,4.13,2.8l0.05,0.02l0.5-0.54l-0.11-0.04
			C133.05,56.2,131.74,55.42,130.88,54.59z M132.23,59.44v1.4h-4.62v-1.4H132.23z M127.62,58.87v-1.29h4.62v1.29H127.62z"/>
		<path d="M182.66,58.61c-0.69-0.92-1.16-1.92-1.41-3.11h3.8v-0.65h-4.61c0.11-0.79,0.21-1.72,0.28-2.83l0.01-0.08h-0.64l0,0.07
			c-0.07,1.03-0.17,2.01-0.29,2.84h-3.88v0.65h3.77c-0.24,1.23-0.56,2.14-0.95,2.78c-0.67,1.1-1.71,2.02-3.17,2.81l-0.09,0.05
			l0.47,0.5l0.05-0.03c1.58-0.85,2.68-1.84,3.36-3.04c0.41-0.71,0.73-1.7,0.98-3.07h0.27c0.26,1.29,0.75,2.4,1.5,3.45
			c0.7,1.04,1.6,1.91,2.74,2.66l0.07,0.04l0.42-0.63l-0.07-0.04C184.18,60.32,183.33,59.55,182.66,58.61z"/>
		<path d="M168.88,53.03l-0.05-0.05c-0.4-0.44-0.81-0.78-1.25-1.07l-0.06-0.04l-0.39,0.46l0.07,0.05c0.46,0.33,0.85,0.67,1.16,1.05
			h-5.24v0.62h4.61v1.77h-3.46v4.9h0.7v-4.27h2.76v5.21h0.7v-5.21h2.89v3.16c0,0.37-0.15,0.37-0.21,0.37
			c-0.42,0-0.91-0.11-1.46-0.32l-0.12-0.05l0.06,0.67l0.05,0.02c0.56,0.2,1.04,0.29,1.47,0.29c0.59,0,0.9-0.31,0.9-0.9v-3.87h-3.59
			v-1.77h4.61v-0.62h-4.5L168.88,53.03z"/>
		<path d="M139.79,54.23l0.06,0.06l0.38-0.51l-0.05-0.05c-0.49-0.48-1.05-0.92-1.66-1.29l-0.06-0.04l-0.35,0.46l0.07,0.05
			C138.73,53.27,139.27,53.71,139.79,54.23z"/>
		<path d="M145.17,56.02h2.21v-0.57h-2.35v-1.37h1.82v-0.57h-1.82v-1.57h-0.61v1.57h-1.77v-1.57h-0.61v1.57h-1.53v0.57h1.53v1.37
			h-2.14v0.57h2.08c-0.15,0.32-0.37,0.66-0.64,1.01c-0.37,0.47-0.83,0.92-1.38,1.31l-0.08,0.06l0.45,0.44l0.05-0.04
			c0.5-0.37,0.95-0.8,1.35-1.29v2.87c0,0.37,0.05,0.64,0.32,0.81c0.26,0.17,0.95,0.21,3.06,0.21c0.98,0,1.36-0.11,1.51-0.44
			c0.08-0.18,0.14-0.64,0.17-1.41l0-0.05l-0.65-0.32l-0.01,0.23c-0.02,0.49-0.03,0.96-0.1,1.11c-0.09,0.22-0.36,0.26-0.93,0.26
			c-1.57,0-2.4-0.01-2.61-0.13c-0.13-0.08-0.16-0.16-0.16-0.32v-1.08h3.05V57.2c0.46,0.47,1.01,0.91,1.65,1.32l0.06,0.04l0.48-0.54
			l-0.08-0.05C146.47,57.37,145.69,56.72,145.17,56.02z M142.35,58.7v-1.12h2.44v1.12H142.35z M144.42,54.08v1.37h-1.77v-1.37
			H144.42z M142.11,57.01c0.22-0.33,0.4-0.65,0.54-0.99h1.8c0.21,0.34,0.47,0.67,0.76,0.99H142.11z"/>
		<path d="M139.98,57.56l-0.51-0.35l-0.03,0.1c-0.42,1.4-1,2.71-1.73,3.88l-0.04,0.06l0.56,0.39l0.04-0.08
			c0.77-1.37,1.32-2.66,1.7-3.96L139.98,57.56z"/>
		<path d="M139.33,56.65l0.06,0.07l0.39-0.5l-0.05-0.05c-0.5-0.54-1.04-1-1.66-1.42l-0.06-0.04l-0.35,0.45l0.07,0.05
			C138.31,55.63,138.83,56.1,139.33,56.65z"/>
		<path d="M189.09,56.84h7.75v1.11h0.6v-1.68h-0.69l0.09-3.84h-2.37v0.57h1.75l-0.02,0.7h-1.73v0.58h1.71l-0.01,0.66h-1.87v0.57
			h1.85l-0.02,0.75h-2.18l0.39-0.43l-0.06-0.05c-0.25-0.23-0.47-0.43-0.71-0.63c0.22-0.21,0.42-0.45,0.6-0.71l0.04-0.05l-0.22-0.25
			l0.36-0.4l-0.1-0.09c-0.2-0.18-0.4-0.36-0.61-0.53c0.24-0.23,0.46-0.48,0.69-0.8l0.04-0.05l-0.36-0.41l-0.06,0.08
			c-0.21,0.3-0.45,0.57-0.74,0.84c-0.29-0.22-0.62-0.44-1-0.67l-0.06-0.04l-0.35,0.41l0.08,0.05c0.34,0.22,0.63,0.42,0.89,0.61
			c-0.31,0.23-0.67,0.44-1.05,0.61l-0.08,0.04l0.29,0.48l0.06-0.03c0.42-0.19,0.82-0.43,1.21-0.74c0.21,0.19,0.42,0.39,0.59,0.56
			l-0.01,0.02c-0.19,0.27-0.4,0.51-0.65,0.74c-0.28-0.2-0.57-0.4-0.89-0.61l-0.06-0.04l-0.35,0.42l0.08,0.05
			c0.24,0.15,0.5,0.33,0.78,0.54c-0.31,0.23-0.64,0.43-1.02,0.6l-0.08,0.04l0.29,0.45h-2.14l-0.01-0.79h1.85v-0.57h-1.87l-0.01-0.62
			h1.8v-0.58h-1.81l-0.01-0.42c0.65-0.12,1.29-0.33,1.94-0.65l0.08-0.04l-0.34-0.55l-0.06,0.03c-0.76,0.33-1.47,0.54-2.16,0.65
			l-0.07,0.01l0.09,3.53h-0.69v1.68h0.61V56.84z M191.96,56.25c0.43-0.19,0.83-0.43,1.19-0.72c0.29,0.26,0.52,0.47,0.74,0.7
			l0.04,0.04h-2.01L191.96,56.25z"/>
		<path d="M197.79,59.2h-4.58c0-0.01-0.01-0.02-0.01-0.02c-0.01-0.02-0.01-0.04-0.02-0.06c1.08-0.33,2.02-0.74,2.8-1.21l0.04-0.02
			v-0.49h-6.06v0.57h4.8c-0.51,0.22-1.1,0.43-1.74,0.61l0,0c-0.02,0-0.08,0.02-0.15,0.04l0,0c0,0-0.01,0-0.01,0
			c-0.07,0.02-0.18,0.05-0.29,0.07c-0.05,0.01-0.09,0.02-0.14,0.03l-0.1,0.02l0.05,0.09c0.06,0.11,0.11,0.23,0.16,0.38h-4.39v0.57
			h4.55c0.06,0.25,0.1,0.47,0.12,0.77c0.01,0.27-0.01,0.39-0.09,0.44c-0.05,0.04-0.1,0.06-0.21,0.06c-0.32,0-0.67-0.08-1.09-0.25
			l-0.12-0.05l0.06,0.68l0.05,0.02c0.45,0.14,0.84,0.22,1.22,0.22c0.24,0,0.44-0.06,0.58-0.18c0.18-0.15,0.25-0.43,0.25-0.94
			c0-0.25-0.04-0.48-0.1-0.77h4.42V59.2z"/>
		<path d="M153.57,58.44l-0.1-0.62l-0.1,0.05c-0.29,0.16-0.5,0.25-0.89,0.41v-2.8h1.08v-0.57h-1.08v-2.68h-0.61v2.68h-1.24v0.57
			h1.24v3.04c-0.44,0.17-0.85,0.32-1.34,0.46l-0.1,0.03l0.32,0.6l0.06-0.02c0.91-0.3,1.8-0.67,2.71-1.13L153.57,58.44z"/>
		<path d="M159.73,59.49c-0.06,0.7-0.13,1.21-0.2,1.4c-0.05,0.14-0.11,0.14-0.14,0.14c-0.12,0-0.35-0.22-0.63-0.83
			c-0.15-0.33-0.29-0.7-0.41-1.1c0,0,0,0,0,0l0.01-0.01c0.52-0.74,0.95-1.94,1.28-3.59l0.01-0.08l-0.64-0.12L159,55.38
			c-0.23,1.18-0.52,2.13-0.88,2.84c-0.08-0.33-0.15-0.7-0.21-1.07c-0.13-0.83-0.22-1.72-0.26-2.65h2.49v-0.57h-2.52
			c-0.03-0.58-0.04-1.2-0.04-1.9v-0.08h-0.65v0.08c0,0.77,0.01,1.36,0.04,1.9h-3.04v2.99c0,1.08-0.14,1.93-0.43,2.58
			c-0.28,0.64-0.67,1.17-1.2,1.62l-0.06,0.05l0.39,0.49l0.06-0.05c0.58-0.48,1.02-1.05,1.34-1.74c0.33-0.72,0.5-1.67,0.5-2.88v-0.47
			h1.53c-0.04,1.22-0.12,2.09-0.23,2.45c-0.1,0.33-0.26,0.33-0.31,0.33c-0.17,0-0.4-0.02-0.85-0.18l-0.11-0.04v0.67l0.06,0.02
			c0.43,0.13,0.73,0.19,0.99,0.19c0.33,0,0.57-0.2,0.73-0.61c0.16-0.44,0.28-1.55,0.34-3.31l0-0.08h-2.15v-1.44H157
			c0.06,1.1,0.18,2.1,0.34,2.98c0.09,0.5,0.21,1.02,0.34,1.47c-0.52,0.73-1.2,1.41-2.09,2.02l-0.07,0.05l0.37,0.46l0.06-0.04
			c0.78-0.51,1.42-1.09,1.95-1.74c0.12,0.34,0.27,0.67,0.43,0.98c0.33,0.6,0.67,0.92,1.04,0.97c0.23,0.03,0.45-0.08,0.57-0.28
			c0.15-0.25,0.26-0.73,0.35-1.52l0-0.04l-0.57-0.46L159.73,59.49z"/>
		<path d="M159.01,53.75l0.04,0.09l0.55-0.38l-0.03-0.06c-0.25-0.49-0.52-0.88-0.89-1.3l-0.05-0.05l-0.5,0.34l0.05,0.07
			C158.57,52.93,158.81,53.3,159.01,53.75z"/>
	</g>
</g>
<g id="Logo">
	<g>
		<path class="st0" d="M110.51,0.21L20.8,23.54c-0.13,0.03-0.38,0.12-0.53,0.22c-0.16,0.1-0.29,0.24-0.43,0.42L0.36,49.9
			c-0.07,0.1-0.07,0.19-0.07,0.27c0,0.15,0.12,0.29,0.24,0.32l19.5,4.24l1.14,0.4l3.64,0.79l2.5,0.35l24.48,5.28l2.2,0.67l2.82,0.61
			l1.93,0.25L97,71.33L110.51,0.21z"/>
		<linearGradient id="SVGID_1_" gradientUnits="userSpaceOnUse" x1="113.0688" y1="0.3134" x2="97.9078" y2="71.0649">
			<stop  offset="0" style="stop-color:#BF2169"/>
			<stop  offset="0.1838" style="stop-color:#B42164"/>
			<stop  offset="0.4834" style="stop-color:#9A225A"/>
			<stop  offset="0.8594" style="stop-color:#76214B"/>
			<stop  offset="1" style="stop-color:#682045"/>
		</linearGradient>
		<path class="st1" d="M113.28,9.26c0.05,0.19,0.1,0.44,0.1,0.69c0,0.22-0.05,0.43-0.09,0.6L97.82,70.97
			c-0.09,0.36-0.29,0.63-0.44,0.6l-0.25-0.06L110.71,0L113.28,9.26z"/>
		<linearGradient id="SVGID_2_" gradientUnits="userSpaceOnUse" x1="104.866" y1="-1.1103" x2="48.217" y2="58.5292">
			<stop  offset="0" style="stop-color:#FBD5E0"/>
			<stop  offset="0.35" style="stop-color:#BF2169"/>
			<stop  offset="1" style="stop-color:#682045"/>
		</linearGradient>
		<path class="st2" d="M97.13,71.52L110.71,0L20.76,23.39c-0.15,0.04-0.41,0.13-0.58,0.25c-0.19,0.13-0.34,0.28-0.47,0.46
			L0.11,49.97c-0.22,0.29-0.11,0.6,0.25,0.67l20.81,4.49c-1.82-0.68-3.18-1.67-3.89-2.49c-1.86-2.2-2.67-5.23-2.22-8.45
			c1.13-8.2,7.02-11.87,12.46-11.87c2.6,0,5.06,0.43,7,1.49l-0.32,3.65h-2.68l0.12-1.41c-0.98-0.61-4.48-1.16-7.36,0.01
			c-3.39,1.55-4.85,5.58-5.04,8.28c-0.13,1.93,0.14,4.45,1.49,6.27c1.36,1.83,5.16,3.24,9.63,1.74c1.99-0.7,2.88,1.36,2.88,1.36
			l-0.21,0.12c-2.96,1.76-5.79,2.26-8.23,2.09l29.18,6.29l4.07-7.44l-4.54-14.19h-1.89l0.22-2.57h4.84l3.89,12.15l5.39-9.84
			c0,0,0.92-2.31,3.87-2.31h0.99L57.24,62.16c-0.14,0.25-0.27,0.47-0.43,0.66L97.13,71.52z M34.99,38.02h5.84l-1.56,17.96
			c0,0-3.84,0.19-3.5-3.71l1.02-11.68h-2.02L34.99,38.02z M41.18,34.83c-0.09,1.05-1.02,1.91-2.07,1.91c-1.05,0-1.83-0.85-1.74-1.91
			c0.1-1.05,1.02-1.9,2.07-1.9C40.49,32.93,41.28,33.78,41.18,34.83z M44.2,35.09l3.9-0.94l-0.34,3.87h2.94l-0.22,2.49h-2.93
			l-0.86,9.9c-0.09,1.06,0.02,1.86,0.34,2.37c0.29,0.47,0.76,0.7,1.43,0.7c2.21,0,2.13,2.11,2.13,2.11s-1.69,0.38-2.82,0.38
			c-1.83,0-3.16-0.5-3.95-1.48c-0.79-0.97-1.09-2.48-0.91-4.49L44.2,35.09z M89.59,45.78c-0.19,2.15-0.44,3.68-0.76,4.68
			c-0.33,1.01-0.92,2-1.75,2.93c-1.54,1.72-3.78,2.6-6.65,2.6c-2.93,0-5.06-0.77-6.32-2.29c-1.25-1.52-1.57-3.87-1.29-7.07
			l0.74-8.61h-2.38l0.22-2.53h6.21l-0.21,2.53l-0.68,7.7c-0.17,1.92-0.17,3.34-0.06,4.21c0.1,0.82,0.37,1.5,0.8,2.03
			c0.83,1.01,1.97,1.51,3.5,1.51c1.46,0,2.67-0.46,3.7-1.41c0.95-0.88,1.54-2.78,1.79-5.66l0.75-8.6c0,0,0.2-2.3,2.7-2.3h0.6
			L89.59,45.78z"/>
	</g>
</g>
<g id="One_line_construction_20pt">
	<g>
		<path d="M124.28,35.24l0.8-0.92c0.86,0.86,2.02,1.1,2.62,1.1c1.5,0,2.74-0.98,2.74-2.44c0-1.98-1.5-2.52-3.02-3.22
			c-1.78-0.84-2.92-1.6-2.92-3.84c0-1.86,1.76-3.3,3.68-3.3c1.12,0,1.88,0.1,3.34,1.04l-0.72,1.02c-1.36-0.9-1.82-0.84-2.66-0.84
			c-0.78,0-2.34,0.58-2.34,2.18c0,1.58,1.08,2.1,2.3,2.68c1.98,0.92,3.64,1.58,3.64,4.2c0,2.08-1.76,3.72-3.94,3.72
			C126.9,36.62,125.56,36.52,124.28,35.24z"/>
		<path d="M134.84,34.22v-5.8h-1.6v-1.12h1.58v-1.72h1.2v1.72h2.42v1.12h-2.4v5.6c0,1.36,0.56,1.48,0.96,1.48
			c0.78,0,1.3-0.36,1.3-0.36l0.46,1c0,0-0.68,0.48-1.82,0.48C135.48,36.62,134.84,35.84,134.84,34.22z"/>
		<path d="M140.36,34.24v-6.94h1.2v6.5c0,1.24,0.72,1.68,1.6,1.68c1.32,0,2.68-1.34,2.84-1.58v-6.6h1.2v9.2H146v-1.3
			c-0.74,0.66-1.78,1.42-2.9,1.42C141.14,36.62,140.36,35.48,140.36,34.24z"/>
		<path d="M149.6,31.87c0-2.18,1.04-4.7,3.8-4.7c1.46,0,2.6,1.02,2.94,1.22v-6.32h1.18V36.5h-1.18v-1.1
			c-0.52,0.38-1.54,1.22-2.76,1.22C150.86,36.62,149.6,34.02,149.6,31.87z M156.34,34.1v-4.4c-0.36-0.32-1.36-1.38-2.88-1.38
			c-1.66,0-2.64,1.42-2.64,3.58c0,2.22,1.24,3.6,2.8,3.6C154.88,35.5,155.88,34.5,156.34,34.1z"/>
		<path d="M159.96,31.99c0-2.6,1.38-4.82,4.08-4.82c2.44,0,3.36,1.8,3.36,4.02v0.72h-6.2c0,1.88,0.96,3.56,3.06,3.56
			c0.96,0,1.82-0.38,2.28-0.7c0-0.02,0.58,1.04,0.58,1.04c-0.5,0.3-1.52,0.8-2.94,0.8C161.44,36.62,159.96,34.52,159.96,31.99z
			 M166.14,30.83c0-1.3-0.68-2.52-2.12-2.52c-1.68,0-2.52,1.48-2.7,2.52H166.14z"/>
		<path d="M169.56,27.29h1.2v1.28c0.72-0.66,1.9-1.4,3.02-1.4c1.94,0,2.72,1.14,2.72,2.38v6.94h-1.2v-6.5
			c0-1.22-0.72-1.68-1.58-1.68c-1.38,0-2.84,1.4-2.96,1.6v6.58h-1.2V27.29z"/>
		<path d="M180,34.22v-5.8h-1.6v-1.12h1.58v-1.72h1.2v1.72h2.42v1.12h-2.4v5.6c0,1.36,0.56,1.48,0.96,1.48c0.78,0,1.3-0.36,1.3-0.36
			l0.46,1c0,0-0.68,0.48-1.82,0.48C180.64,36.62,180,35.84,180,34.22z"/>
		<path d="M192.14,30.25h-1.32v6.24h-1.3V22.73h3.36c0.72,0,3.98-0.1,3.98,3.4c0,2.26-1.68,3.62-3.34,3.98l4.04,5.98l-1.22,0.58
			L192.14,30.25z M191.94,29.03c3.16,0,3.56-1.8,3.56-2.92c0-2-1.66-2.18-3-2.18h-1.68v5.1H191.94z"/>
		<path d="M198.8,31.99c0-2.6,1.38-4.82,4.08-4.82c2.44,0,3.36,1.8,3.36,4.02v0.72h-6.2c0,1.88,0.96,3.56,3.06,3.56
			c0.96,0,1.82-0.38,2.28-0.7c0-0.02,0.58,1.04,0.58,1.04c-0.5,0.3-1.52,0.8-2.94,0.8C200.28,36.62,198.8,34.52,198.8,31.99z
			 M204.98,30.83c0-1.3-0.68-2.52-2.12-2.52c-1.68,0-2.52,1.48-2.7,2.52H204.98z"/>
		<path d="M207.7,35.94l0.58-1.02c0.5,0.36,1.1,0.58,1.84,0.58c0.88,0,1.6-0.54,1.6-1.42c0-0.98-0.86-1.46-2-2.02
			c-1.26-0.64-1.96-1.24-1.96-2.58c0-1.52,1.48-2.3,2.64-2.3c1.02,0,1.78,0.3,2.28,0.66l-0.56,0.98c-0.34-0.26-1.06-0.5-1.7-0.5
			c-0.76,0-1.44,0.42-1.44,1.14c0,0.94,0.66,1.18,1.42,1.62c1.08,0.6,2.56,1.18,2.56,3c0,1.68-1.52,2.54-2.8,2.54
			C209.08,36.62,208.3,36.36,207.7,35.94z"/>
		<path d="M215.4,24.31c0-0.5,0.4-0.9,0.9-0.9c0.5,0,0.9,0.4,0.9,0.9s-0.4,0.92-0.9,0.92C215.8,25.23,215.4,24.81,215.4,24.31z
			 M215.68,27.29h1.22v9.2h-1.22V27.29z"/>
		<path d="M219.6,31.87c0-2.18,1.04-4.7,3.8-4.7c1.46,0,2.6,1.02,2.94,1.22v-6.32h1.18V36.5h-1.18v-1.1
			c-0.52,0.38-1.54,1.22-2.76,1.22C220.86,36.62,219.6,34.02,219.6,31.87z M226.34,34.1v-4.4c-0.36-0.32-1.36-1.38-2.88-1.38
			c-1.66,0-2.64,1.42-2.64,3.58c0,2.22,1.24,3.6,2.8,3.6C224.88,35.5,225.88,34.5,226.34,34.1z"/>
		<path d="M229.96,31.99c0-2.6,1.38-4.82,4.08-4.82c2.44,0,3.36,1.8,3.36,4.02v0.72h-6.2c0,1.88,0.96,3.56,3.06,3.56
			c0.96,0,1.82-0.38,2.28-0.7c0-0.02,0.58,1.04,0.58,1.04c-0.5,0.3-1.52,0.8-2.94,0.8C231.44,36.62,229.96,34.52,229.96,31.99z
			 M236.14,30.83c0-1.3-0.68-2.52-2.12-2.52c-1.68,0-2.52,1.48-2.7,2.52H236.14z"/>
		<path d="M239.56,27.29h1.2v1.28c0.72-0.66,1.9-1.4,3.02-1.4c1.94,0,2.72,1.14,2.72,2.38v6.94h-1.2v-6.5
			c0-1.22-0.72-1.68-1.58-1.68c-1.38,0-2.84,1.4-2.96,1.6v6.58h-1.2V27.29z"/>
		<path d="M248.8,31.89c0-3.02,2.14-4.72,4.32-4.72c1.14,0,2.06,0.38,2.68,0.8c0,0-0.58,1-0.58,1.02c-0.5-0.36-1.3-0.68-2.04-0.68
			c-1.8,0-3.14,1.42-3.14,3.66c0,2.34,1.48,3.52,3.08,3.52c0.98,0,1.8-0.44,2.26-0.76l0.6,1.02c-0.5,0.3-1.5,0.86-2.92,0.86
			C250.4,36.62,248.8,34.42,248.8,31.89z"/>
		<path d="M257.01,31.99c0-2.6,1.38-4.82,4.08-4.82c2.44,0,3.36,1.8,3.36,4.02v0.72h-6.2c0,1.88,0.96,3.56,3.06,3.56
			c0.96,0,1.82-0.38,2.28-0.7c0-0.02,0.58,1.04,0.58,1.04c-0.5,0.3-1.52,0.8-2.94,0.8C258.5,36.62,257.01,34.52,257.01,31.99z
			 M263.2,30.83c0-1.3-0.68-2.52-2.12-2.52c-1.68,0-2.52,1.48-2.7,2.52H263.2z"/>
		<path d="M269.61,29.61c0-3.9,2.62-7,6.74-7c3.94,0,6.66,3.2,6.66,6.98c0,4.18-2.8,7.02-6.68,7.02
			C272.36,36.62,269.61,33.7,269.61,29.61z M281.72,29.61c0-3.12-1.98-5.78-5.38-5.78s-5.4,2.66-5.4,5.78
			c0,2.88,1.94,5.78,5.34,5.78C279.66,35.4,281.72,32.74,281.72,29.61z"/>
		<path d="M286.23,28.41h-1.6v-1.12h1.6v-2.88c0-1.44,0.9-2.48,2.36-2.48c0.9,0,1.7,0.32,1.84,0.42l-0.48,1.02
			c0,0-0.7-0.32-1.3-0.32c-0.4,0-1.24,0.26-1.24,1.48v2.76h3.92v-2.88c0-1.44,0.9-2.48,2.36-2.48c0.9,0,1.7,0.32,1.84,0.42
			l-0.48,1.02c0,0-0.7-0.32-1.3-0.32c-0.4,0-1.24,0.26-1.24,1.48v2.76h5.1v9.2h-1.22v-8.1h-3.86v8.1h-1.2v-8.1h-3.9v8.1h-1.2V28.41z
			 M296.12,24.33c0-0.5,0.4-0.92,0.9-0.92s0.9,0.42,0.9,0.92s-0.4,0.9-0.9,0.9S296.12,24.83,296.12,24.33z"/>
		<path d="M300.41,31.89c0-3.02,2.14-4.72,4.32-4.72c1.14,0,2.06,0.38,2.68,0.8c0,0-0.58,1-0.58,1.02c-0.5-0.36-1.3-0.68-2.04-0.68
			c-1.8,0-3.14,1.42-3.14,3.66c0,2.34,1.48,3.52,3.08,3.52c0.98,0,1.8-0.44,2.26-0.76l0.6,1.02c-0.5,0.3-1.5,0.86-2.92,0.86
			C302.01,36.62,300.41,34.42,300.41,31.89z"/>
		<path d="M308.63,31.99c0-2.6,1.38-4.82,4.08-4.82c2.44,0,3.36,1.8,3.36,4.02v0.72h-6.2c0,1.88,0.96,3.56,3.06,3.56
			c0.96,0,1.82-0.38,2.28-0.7c0-0.02,0.58,1.04,0.58,1.04c-0.5,0.3-1.52,0.8-2.94,0.8C310.11,36.62,308.63,34.52,308.63,31.99z
			 M314.81,30.83c0-1.3-0.68-2.52-2.12-2.52c-1.68,0-2.52,1.48-2.7,2.52H314.81z"/>
	</g>
	<g>
	</g>
	<g>
	</g>
	<g>
	</g>
	<g>
	</g>
	<g>
	</g>
	<g>
	</g>
</g>
</svg>
