<?xml version="1.0" standalone="no"?>
<!DOCTYPE svg PUBLIC "-//W3C//DTD SVG 20010904//EN"
 "http://www.w3.org/TR/2001/REC-SVG-20010904/DTD/svg10.dtd">
<svg version="1.0" xmlns="http://www.w3.org/2000/svg"
 width="1280.000000pt" height="850.000000pt" viewBox="0 0 1280.000000 850.000000"
 preserveAspectRatio="xMidYMid meet">
<g transform="translate(0.000000,850.000000) scale(0.100000,-0.100000)"
fill="#000000" stroke="none">
<path d="M2066 6155 c-87 -24 -176 -75 -247 -142 -77 -73 -126 -147 -161 -243
l-23 -65 0 -1220 c0 -1360 -6 -1243 68 -1390 41 -83 162 -202 247 -243 139
-67 -218 -62 4110 -62 4345 0 3985 -5 4120 66 121 64 230 190 282 327 l23 62
3 1208 c2 1057 0 1215 -13 1273 -37 161 -155 309 -306 383 -46 22 -108 46
-138 51 -35 7 -1419 10 -3985 9 -3257 -1 -3939 -3 -3980 -14z m1123 -1096 c88
-14 163 -51 210 -105 41 -47 71 -117 71 -166 0 -27 -2 -28 -47 -28 -27 0 -71
-3 -99 -6 l-52 -7 -12 39 c-18 57 -55 91 -112 104 -135 33 -272 -43 -228 -126
20 -36 69 -58 219 -99 210 -57 275 -94 326 -186 27 -49 30 -63 30 -144 0 -81
-3 -95 -30 -144 -37 -66 -92 -114 -164 -143 -77 -30 -296 -33 -382 -5 -91 30
-148 80 -191 167 -20 41 -39 92 -42 112 -8 42 -10 41 127 53 52 5 67 4 67 -7
0 -7 11 -36 24 -65 35 -75 95 -108 196 -108 90 0 143 22 178 75 30 44 24 95
-13 127 -14 13 -65 34 -113 48 -219 64 -279 87 -327 123 -165 125 -132 378 61
463 79 35 195 46 303 28z m671 -99 l0 -90 -95 0 -95 0 0 90 0 90 95 0 95 0 0
-90z m2522 -268 c6 -388 8 -402 64 -453 85 -78 256 -60 309 31 19 33 20 55 23
408 l3 372 100 0 100 0 -3 -397 c-3 -395 -3 -398 -27 -451 -30 -67 -105 -135
-174 -159 -41 -14 -83 -18 -197 -18 -135 0 -149 2 -200 26 -123 58 -173 134
-190 289 -5 52 -10 233 -10 403 l0 307 99 0 98 0 5 -358z m2821 -111 c213
-123 386 -225 385 -227 -2 -1 -176 -102 -388 -224 -212 -122 -400 -231 -417
-242 l-33 -20 0 487 0 487 33 -19 c17 -10 206 -120 420 -242z m-4763 178 c25
-11 60 -34 78 -52 l32 -31 0 47 0 47 91 0 90 0 -3 -412 c-3 -407 -3 -414 -26
-463 -30 -65 -63 -98 -126 -127 -46 -21 -66 -23 -196 -23 -141 0 -147 1 -205
30 -78 39 -116 88 -123 156 l-5 52 74 -7 c132 -12 147 -16 153 -42 9 -36 40
-46 126 -42 116 5 140 36 140 187 l0 73 -37 -37 c-54 -54 -106 -75 -183 -75
-153 0 -263 109 -291 289 -13 86 0 209 30 276 27 61 88 124 146 151 66 31 170
33 235 3z m1031 -6 c46 -24 58 -37 82 -83 l27 -56 3 -287 2 -287 -97 0 -98 0
0 244 c0 149 -4 256 -11 273 -45 119 -205 102 -248 -26 -7 -21 -11 -119 -11
-262 l0 -229 -100 0 -100 0 0 365 0 365 90 0 90 0 0 -51 0 -51 41 37 c62 56
112 75 200 75 63 0 85 -5 130 -27z m2257 1 c59 -29 111 -87 144 -160 20 -43
23 -65 23 -184 0 -161 -16 -216 -85 -293 -107 -119 -265 -131 -383 -27 l-37
32 0 -181 0 -181 -95 0 -95 0 0 505 0 505 90 0 90 0 0 -51 0 -51 25 30 c69 82
219 108 323 56z m-3868 -349 l0 -365 -95 0 -95 0 0 365 0 365 95 0 95 0 0
-365z"/>
<path d="M4325 4626 c-75 -33 -110 -115 -102 -237 7 -103 33 -154 93 -181 150
-66 268 109 209 308 -29 98 -117 146 -200 110z"/>
<path d="M7482 4613 c-67 -33 -98 -116 -89 -239 9 -119 60 -190 144 -201 52
-7 106 18 134 63 49 80 48 256 -3 330 -41 61 -119 80 -186 47z"/>
</g>
</svg>
